<?xml version="1.0" standalone="no"?>
<!DOCTYPE svg PUBLIC "-//W3C//DTD SVG 20010904//EN"
 "http://www.w3.org/TR/2001/REC-SVG-20010904/DTD/svg10.dtd">
<svg version="1.0" xmlns="http://www.w3.org/2000/svg"
 width="200.000000pt" height="200.000000pt" viewBox="0 0 200.000000 200.000000"
 preserveAspectRatio="xMidYMid meet">

<g transform="translate(0.000000,200.000000) scale(0.100000,-0.100000)"
fill="#000000" stroke="none">
<path d="M872 1970 c-379 -53 -691 -315 -805 -675 -163 -518 123 -1066 643
-1229 281 -89 594 -42 845 127 78 53 200 175 255 256 225 334 225 770 -1 1102
-129 191 -339 337 -566 395 -107 27 -273 38 -371 24z m359 -39 c317 -82 574
-318 679 -621 32 -96 50 -200 50 -300 0 -446 -291 -823 -729 -942 -109 -30
-353 -30 -462 0 -438 119 -729 496 -729 942 0 417 290 795 700 914 140 40 351
43 491 7z"/>
<path d="M1070 1895 c0 -18 26 -20 36 -3 4 7 3 8 -4 4 -7 -4 -12 -2 -12 3 0 6
-4 11 -10 11 -5 0 -10 -7 -10 -15z"/>
<path d="M790 1875 c-10 -13 -9 -15 11 -15 21 0 22 -1 5 -13 -13 -10 -16 -20
-11 -36 6 -21 8 -21 19 -5 12 16 14 16 25 -2 12 -18 12 -18 7 1 -2 11 -7 35
-11 53 -7 34 -25 41 -45 17z"/>
<path d="M914 1858 c3 -7 9 -21 12 -30 7 -19 39 -24 49 -8 3 6 3 20 0 31 -6
17 -9 19 -16 8 -6 -11 -11 -11 -21 -1 -16 16 -31 16 -24 0z"/>
<path d="M1002 1863 c9 -2 19 -16 21 -31 4 -24 4 -24 6 6 1 27 -2 32 -21 31
-16 -1 -18 -3 -6 -6z"/>
<path d="M1044 1854 c3 -9 6 -22 6 -30 0 -9 9 -13 25 -12 21 2 25 7 24 33 0
27 -1 28 -9 9 -13 -34 -30 -39 -30 -10 0 14 -5 26 -11 26 -6 0 -8 -7 -5 -16z"/>
<path d="M1124 1862 c-6 -4 -10 -18 -9 -32 0 -18 6 -25 20 -26 11 -1 22 -3 25
-4 22 -10 60 -7 60 5 0 7 2 22 5 32 3 10 -1 5 -9 -12 -15 -29 -18 -28 -20 7
-1 10 -5 18 -11 18 -5 0 -9 -11 -9 -25 1 -13 -3 -22 -7 -19 -5 3 -9 16 -9 29
0 24 -20 38 -36 27z m23 -36 c-9 -22 -26 -20 -22 2 2 9 4 21 4 27 1 5 6 4 12
-2 7 -7 9 -19 6 -27z"/>
<path d="M857 1853 c-2 -5 -1 -19 4 -33 l7 -25 1 28 c1 31 21 38 21 7 0 -11 4
-20 9 -20 4 0 6 11 3 25 -4 24 -35 36 -45 18z"/>
<path d="M765 1815 l7 -30 -21 25 c-11 14 -23 21 -28 16 -4 -5 -2 -11 5 -13 6
-3 12 -14 12 -25 0 -14 5 -18 16 -14 9 3 20 6 25 6 12 0 2 39 -13 55 -6 6 -7
-1 -3 -20z"/>
<path d="M1236 1814 c-4 -15 -3 -31 1 -35 5 -5 10 7 11 26 3 41 -3 46 -12 9z"/>
<path d="M1270 1804 c-15 -38 -12 -42 8 -11 21 32 35 26 22 -9 -12 -29 -5 -32
10 -3 9 15 8 24 -1 35 -17 21 -28 17 -39 -12z"/>
<path d="M1367 1815 c-4 -8 -14 -15 -24 -16 -16 0 -16 -1 2 -9 19 -8 19 -9 -2
-9 -16 -1 -23 -7 -23 -21 0 -11 5 -20 10 -20 6 0 10 7 10 15 0 8 5 15 11 15 6
0 8 -9 4 -22 -5 -22 -5 -22 9 1 7 14 12 31 9 38 -3 8 2 13 12 13 9 0 15 5 13
12 -6 18 -25 20 -31 3z"/>
<path d="M670 1790 c0 -12 4 -18 10 -15 6 3 7 -1 4 -9 -3 -9 -1 -16 5 -16 6 0
11 10 11 22 0 21 0 21 15 2 14 -18 15 -18 6 6 -11 33 -51 41 -51 10z"/>
<path d="M615 1780 c-3 -5 0 -7 9 -4 17 7 42 -31 26 -41 -5 -3 -10 1 -10 9 0
9 -5 16 -11 16 -6 0 -9 -8 -7 -17 2 -10 11 -17 21 -17 9 1 17 -2 17 -6 0 -4 7
-10 14 -13 10 -4 13 -1 9 9 -3 7 -9 14 -14 14 -5 0 -8 3 -7 8 8 31 -31 67 -47
42z"/>
<path d="M1390 1770 c0 -6 5 -8 10 -5 13 8 13 -11 -2 -38 -10 -20 -10 -21 6
-8 19 16 18 52 -1 59 -7 2 -13 -1 -13 -8z"/>
<path d="M590 1743 c13 -27 4 -30 -21 -7 -11 10 -19 12 -24 5 -3 -6 1 -14 9
-17 9 -3 16 -12 16 -20 0 -8 5 -14 10 -14 6 0 10 4 10 9 0 5 7 11 16 13 14 3
13 7 -5 28 -20 23 -21 23 -11 3z"/>
<path d="M812 1720 c-149 -39 -308 -144 -397 -262 -62 -82 -122 -209 -141
-301 -24 -112 -15 -289 20 -392 75 -220 249 -396 465 -470 415 -141 851 96
967 526 25 94 23 261 -5 364 -74 270 -272 467 -536 535 -104 27 -271 27 -373
0z m377 -21 c196 -52 367 -192 454 -369 62 -127 80 -201 80 -330 0 -129 -18
-203 -80 -330 -39 -79 -61 -109 -132 -180 -145 -145 -311 -214 -511 -213 -284
2 -527 154 -650 408 -51 103 -71 195 -71 315 0 120 20 212 71 315 153 316 501
474 839 384z"/>
<path d="M694 691 c-18 -11 -35 -24 -38 -30 -5 -8 95 -11 345 -11 318 0 350 1
338 16 -23 28 -68 44 -113 42 -24 -2 -42 -6 -40 -9 7 -12 -121 -7 -128 4 -6 9
-11 8 -18 -3 -5 -8 -10 -10 -10 -5 0 6 -7 1 -15 -9 -15 -20 -15 -20 -30 0 -8
10 -15 15 -15 9 0 -5 -5 -3 -10 5 -7 11 -12 12 -18 3 -7 -11 -135 -16 -128 -4
2 3 -17 7 -43 9 -31 1 -56 -4 -77 -17z"/>
<path d="M656 569 c20 -32 153 -72 284 -84 128 -12 328 26 390 75 25 20 24 20
-328 20 -257 0 -351 -3 -346 -11z"/>
<path d="M526 1717 c5 -13 2 -16 -10 -11 -21 8 -22 -19 -1 -36 15 -13 45 -7
45 9 0 5 -9 19 -20 32 -14 17 -18 19 -14 6z m24 -38 c0 -5 -7 -9 -15 -9 -15 0
-20 12 -9 23 8 8 24 -1 24 -14z"/>
<path d="M1484 1718 c18 -14 18 -15 -5 -14 -37 2 -34 -27 6 -48 34 -18 46 -36
25 -36 -5 0 -10 -7 -10 -16 0 -13 5 -12 23 7 12 13 29 33 37 44 14 20 14 20
-7 2 -12 -11 -23 -14 -27 -8 -4 5 -2 12 4 16 13 8 13 35 0 35 -5 0 -10 -9 -10
-19 0 -23 -16 -36 -25 -21 -3 5 2 21 11 35 9 14 12 25 6 25 -6 0 -19 3 -29 6
-17 6 -17 6 1 -8z m6 -27 c0 -6 -4 -13 -10 -16 -5 -3 -10 1 -10 9 0 9 5 16 10
16 6 0 10 -4 10 -9z"/>
<path d="M440 1705 c-9 -11 -9 -18 3 -30 9 -8 23 -15 31 -15 9 0 16 -7 16 -15
0 -8 5 -15 10 -15 19 0 10 32 -10 37 -11 3 -17 9 -14 14 3 5 -1 6 -9 3 -8 -3
-18 0 -23 7 -4 7 -3 10 4 5 6 -3 13 -2 16 3 10 16 -11 22 -24 6z"/>
<path d="M413 1635 c-3 -9 2 -24 12 -35 14 -15 14 -18 2 -16 -8 1 -22 8 -31
15 -9 7 -16 9 -16 3 0 -5 7 -15 15 -22 9 -7 13 -15 10 -18 -3 -3 -14 3 -25 13
-11 10 -20 13 -20 8 0 -6 8 -14 17 -17 12 -5 14 -9 5 -18 -9 -9 -15 -9 -24 0
-15 15 -31 16 -26 1 2 -6 6 -9 9 -7 3 2 13 -3 22 -10 13 -11 21 -8 51 20 20
18 36 41 36 50 0 12 5 16 18 11 15 -6 15 -4 -2 15 -22 26 -44 28 -53 7z m20
-10 c-3 -9 -8 -14 -10 -11 -3 3 -2 9 2 15 9 16 15 13 8 -4z"/>
<path d="M1563 1624 c-10 -22 -10 -25 3 -20 50 21 50 21 29 -5 l-20 -24 23 19
c27 23 29 40 3 33 -14 -3 -18 -1 -14 9 9 25 -12 14 -24 -12z"/>
<path d="M1625 1580 c5 -14 2 -20 -9 -20 -9 0 -16 -4 -16 -10 0 -17 18 -11 34
12 9 12 16 20 17 18 0 -3 2 -13 4 -22 2 -9 -3 -22 -10 -28 -15 -12 -10 -40 7
-40 15 0 70 41 64 48 -4 3 -17 -5 -31 -18 -18 -17 -28 -21 -36 -13 -8 8 -4 15
11 26 22 15 22 16 4 41 -23 31 -48 35 -39 6z"/>
<path d="M334 1511 c11 -11 16 -24 13 -28 -4 -4 -14 2 -21 13 -8 10 -18 15
-22 11 -12 -12 22 -41 40 -34 23 9 20 34 -6 48 -23 12 -23 12 -4 -10z"/>
<path d="M241 1481 c-14 -25 -1 -35 15 -13 16 20 17 32 4 32 -5 0 -14 -8 -19
-19z"/>
<path d="M1704 1485 c4 -10 -1 -15 -14 -15 -11 0 -20 -4 -20 -10 0 -15 26 -12
40 5 7 8 16 12 21 9 5 -3 6 2 3 10 -3 9 -13 16 -21 16 -9 0 -13 -6 -9 -15z"/>
<path d="M276 1473 c-3 -4 -6 -13 -6 -22 0 -12 3 -12 12 -3 16 16 28 15 28 -3
0 -8 5 -15 10 -15 6 0 10 6 10 13 0 15 -44 39 -54 30z"/>
<path d="M1739 1451 c13 -8 11 -13 -10 -31 l-24 -22 25 15 c28 16 33 38 10 44
-13 4 -13 3 -1 -6z"/>
<path d="M265 1413 c21 -15 45 -17 45 -4 0 5 -14 11 -32 13 -28 5 -29 4 -13
-9z"/>
<path d="M1740 1395 c-14 -8 -20 -14 -15 -14 6 -1 17 3 25 8 25 17 33 -1 9
-20 -27 -21 -13 -26 15 -6 11 8 15 19 10 30 -7 20 -12 21 -44 2z"/>
<path d="M230 1389 c0 -6 7 -9 15 -6 8 4 17 2 20 -3 4 -6 1 -10 -6 -10 -7 0
-10 -2 -7 -5 3 -3 13 -2 23 1 17 7 17 8 -1 21 -22 16 -44 17 -44 2z"/>
<path d="M207 1347 c-7 -19 8 -33 18 -17 5 8 11 7 21 -1 8 -6 18 -9 21 -5 10
9 -19 27 -34 21 -6 -2 -13 1 -16 8 -2 6 -6 4 -10 -6z"/>
<path d="M1792 1348 c1 -9 -6 -24 -17 -32 -20 -15 -19 -15 3 -9 28 7 39 30 22
46 -9 9 -11 8 -8 -5z"/>
<path d="M156 1314 c-8 -22 -8 -22 17 -21 12 0 34 -3 50 -7 18 -6 27 -4 27 3
0 7 -6 11 -12 10 -28 -3 -47 2 -61 16 -13 13 -16 13 -21 -1z"/>
<path d="M1803 1292 c-3 -13 -11 -18 -19 -15 -8 3 -14 0 -14 -6 0 -6 9 -11 20
-11 12 0 20 7 20 18 0 14 2 15 10 2 8 -13 10 -13 10 2 0 25 -21 33 -27 10z"/>
<path d="M216 757 c3 -9 -7 -18 -28 -25 l-33 -11 34 2 c41 2 54 -19 17 -29
-14 -3 -26 -11 -26 -16 0 -6 7 -8 15 -4 18 7 21 -20 3 -28 -7 -3 1 -3 17 0
l30 5 -25 -15 c-15 -9 -19 -15 -10 -15 19 0 70 28 52 29 -7 0 -12 6 -11 13 3
18 -24 107 -33 107 -4 0 -5 -6 -2 -13z m24 -77 c0 -5 -4 -10 -10 -10 -5 0 -10
5 -10 10 0 6 5 10 10 10 6 0 10 -4 10 -10z"/>
<path d="M1780 756 c0 -4 10 -11 23 -15 22 -9 22 -9 -5 -16 -16 -4 -28 -11
-28 -15 0 -10 59 -24 67 -16 4 3 -1 6 -10 6 -25 0 -21 17 5 24 15 3 19 9 13
15 -12 12 -65 26 -65 17z"/>
<path d="M1757 673 c-4 -4 4 -19 18 -33 26 -27 26 -27 5 -33 -15 -4 -24 0 -30
16 l-9 22 0 -22 c-1 -12 -7 -23 -13 -26 -7 -2 2 -11 20 -21 17 -9 32 -12 32
-6 0 5 -6 10 -12 10 -7 0 -2 6 12 13 19 10 24 20 22 40 -2 19 2 27 13 27 8 0
15 5 15 10 0 11 -63 14 -73 3z"/>
<path d="M220 603 c22 -9 30 -26 18 -40 -7 -9 -7 -13 1 -13 7 0 9 -5 5 -11 -4
-8 1 -9 17 -4 20 6 22 5 12 -6 -21 -21 -15 -32 15 -25 22 5 24 4 10 -4 -10 -6
-18 -16 -18 -22 0 -9 3 -9 12 0 19 19 30 14 18 -7 -7 -15 -6 -24 6 -36 14 -14
19 -14 37 -2 12 7 23 20 25 28 4 10 -1 9 -15 -3 -11 -10 -25 -18 -31 -18 -20
0 -13 27 11 44 l22 17 -25 -7 c-20 -5 -23 -4 -12 7 19 20 15 27 -13 21 -25 -4
-35 11 -15 23 16 10 12 28 -5 21 -52 -21 -51 -21 -36 -2 13 15 13 19 0 28 -11
8 -11 9 3 4 10 -3 20 -1 23 4 4 6 -12 10 -37 9 -24 0 -36 -3 -28 -6z"/>
<path d="M1710 530 c17 -24 18 -30 7 -30 -9 0 -17 6 -20 13 -3 9 -9 9 -23 1
-28 -17 -27 -28 8 -49 26 -15 30 -15 20 -3 -14 17 -1 35 17 24 11 -7 23 22 15
36 -3 5 3 12 15 15 31 8 15 23 -25 23 l-35 0 21 -30z m-20 -30 c0 -5 -4 -10
-10 -10 -5 0 -10 5 -10 10 0 6 5 10 10 10 6 0 10 -4 10 -10z"/>
<path d="M1601 434 c-42 -45 -48 -58 -31 -69 15 -9 12 -35 -5 -35 -7 0 -18 8
-24 17 -5 10 -12 15 -16 12 -11 -12 31 -53 49 -46 25 10 30 36 12 56 -23 25
-2 39 23 17 28 -25 37 -19 11 9 -20 22 -21 25 -6 31 9 4 24 0 34 -10 17 -15
18 -13 19 19 1 49 -19 49 -66 -1z m54 16 c-3 -5 -10 -10 -16 -10 -5 0 -9 5 -9
10 0 6 7 10 16 10 8 0 12 -4 9 -10z"/>
<path d="M370 425 c-23 -24 -23 -26 -7 -43 15 -14 21 -15 38 -4 19 12 19 11 9
-8 -21 -40 31 -69 61 -34 16 20 1 48 -30 52 -12 2 -21 11 -21 21 0 10 -6 24
-13 30 -11 8 -19 5 -37 -14z m36 -24 c-8 -12 -46 -15 -46 -5 0 4 8 13 18 20
18 14 39 3 28 -15z m57 -35 c8 -20 -20 -43 -35 -28 -14 14 -3 42 16 42 7 0 16
-6 19 -14z"/>
<path d="M476 328 c-21 -29 -20 -49 1 -23 15 20 15 20 10 -3 -5 -20 -2 -23 14
-19 16 4 19 2 13 -15 -4 -13 -2 -18 4 -14 5 3 12 -1 16 -9 3 -8 15 -15 27 -15
18 0 21 4 16 30 -5 24 -4 28 10 23 11 -4 14 -3 9 5 -9 15 -33 16 -41 2 -4 -6
-1 -18 6 -26 17 -21 2 -31 -18 -11 -13 13 -14 20 -5 29 20 20 15 40 -7 28 -29
-15 -32 -13 -25 15 8 31 -9 33 -30 3z"/>
<path d="M1503 322 c6 -30 5 -32 -13 -22 -33 18 -44 12 -26 -15 23 -35 20 -38
-14 -14 -37 28 -43 22 -34 -27 6 -35 8 -36 16 -15 5 15 13 21 23 17 8 -3 22
-3 30 0 11 5 12 10 4 26 -10 18 -9 18 10 8 18 -9 21 -8 21 11 0 19 2 20 17 8
15 -13 15 -12 5 7 -6 11 -19 27 -28 35 -16 13 -17 11 -11 -19z"/>
<path d="M599 257 c-15 -32 -6 -57 20 -57 20 0 41 27 41 52 -1 7 -8 1 -16 -14
-8 -16 -19 -28 -24 -28 -16 0 -21 19 -10 41 7 11 9 23 6 26 -3 3 -11 -6 -17
-20z"/>
<path d="M1361 261 c-20 -13 -6 -41 21 -41 21 0 21 0 2 -15 -20 -15 -8 -21 15
-6 20 13 6 41 -21 41 -21 0 -21 0 -2 15 20 15 8 21 -15 6z"/>
<path d="M662 220 c-15 -42 -15 -47 0 -32 10 10 15 7 25 -10 13 -23 13 -22 11
6 -3 32 16 47 26 19 3 -10 9 -24 12 -31 4 -8 0 -10 -12 -5 -12 4 -15 3 -10 -5
9 -15 33 -15 42 -1 3 6 1 16 -5 22 -16 16 -14 30 4 23 8 -3 15 -1 15 4 0 9
-12 12 -67 14 -10 1 -21 8 -24 15 -4 10 -10 4 -17 -19z"/>
<path d="M1260 215 c-26 -31 13 -82 44 -56 19 16 21 42 4 59 -16 16 -33 15
-48 -3z m50 -31 c0 -16 -36 -19 -45 -4 -4 6 -1 17 5 26 14 16 40 2 40 -22z"/>
<path d="M796 201 c-4 -6 -4 -17 0 -23 4 -7 4 -10 -1 -6 -9 9 -35 -9 -35 -24
0 -6 7 -4 16 3 14 11 18 10 30 -6 13 -18 14 -17 14 11 0 35 -14 61 -24 45z"/>
<path d="M1200 188 c0 -26 -23 -58 -41 -58 -5 0 -9 11 -9 24 0 14 -4 28 -10
31 -11 7 -13 -9 -4 -42 8 -29 37 -30 64 -3 23 23 36 25 43 8 2 -7 7 -10 10 -7
4 3 -7 21 -23 40 l-29 34 -1 -27z"/>
<path d="M840 176 c0 -8 -3 -21 -6 -30 -3 -9 -1 -16 5 -16 6 0 11 10 11 23 0
18 2 19 10 7 11 -17 13 -10 4 14 -8 20 -24 21 -24 2z"/>
<path d="M881 162 c-14 -34 -7 -57 10 -32 8 13 11 13 20 -2 21 -37 77 -10 64
32 -8 25 -53 27 -62 3 -6 -15 -8 -14 -13 7 -6 24 -6 24 -19 -8z m79 -11 c0
-11 -5 -23 -11 -27 -15 -9 -33 12 -26 30 9 23 37 20 37 -3z"/>
<path d="M1105 180 c-4 -6 -13 -9 -21 -6 -16 6 -19 -31 -4 -54 8 -13 10 -12
10 5 0 15 3 16 12 7 19 -19 33 -14 15 6 -13 14 -14 21 -5 30 6 6 9 14 6 17 -3
4 -9 1 -13 -5z"/>
<path d="M990 161 c0 -11 -3 -26 -6 -35 -3 -9 -1 -16 5 -16 6 0 11 8 11 17 0
15 2 14 15 -3 14 -18 15 -18 22 6 l7 25 7 -25 c6 -22 7 -20 8 13 1 43 -15 50
-25 11 l-7 -27 -14 27 c-16 31 -23 33 -23 7z"/>
</g>
</svg>
